<svg id="a3d410bc-1ed4-4c4d-ad52-dd09b7315b6a" data-name="Layer 1" xmlns="http://www.w3.org/2000/svg" width="906.5011" height="855.70001" viewBox="0 0 906.5011 855.70001"><path d="M1053.25055,450q0,18.69-1.57,36.99-1.02,11.655-2.63,23.12v.01c-.05.46-.12.92005-.19,1.38-.18,1.27-.37,2.54-.56,3.81q-2.265,14.865-5.57,29.36v.01c-.68,3-1.38995,6-2.13,8.98-.12.49-.25.99-.37,1.48v.01q-1.08,4.245-2.23,8.46a421.98167,421.98167,0,0,1-18.58,53.39q-2.4,5.67-4.97,11.26a419.85787,419.85787,0,0,1-21.68,41.16,429.6463,429.6463,0,0,1-80.06,97.61c-.92.84-1.85,1.67-2.78,2.5q-5.28,4.695-10.71,9.23-8.205,6.84-16.75,13.27a427.93077,427.93077,0,0,1-514.13995,0q-15.705-11.79-30.25-25a429.59636,429.59636,0,0,1-85.43-106.85c-1.4-2.48-2.78-4.97-4.12-7.48q-2.59506-4.8-5.05-9.67-1.90494-3.72006-3.7-7.48c-1.55-3.19-3.06006-6.42-4.51-9.66-1.13-2.48-2.22-4.97-3.29-7.48q-3.33-7.725-6.32995-15.61a420.85277,420.85277,0,0,1-14.19-44.21,428.19664,428.19664,0,0,1-13.91-108.59c0-236.3,191.55-427.85,427.85-427.85a425.92861,425.92861,0,0,1,266.04,92.76q5.31,4.2,10.49,8.61a430.13748,430.13748,0,0,1,47.05,46.57h.02q11.97,13.83,22.76,28.68a426.2464,426.2464,0,0,1,81.49,251.23Z" transform="translate(-146.74945 -22.14999)" fill="#f2f2f2"/><path d="M953.81294,708.269c25.32409-34.21749,35.06339-82.415,15.36435-120.15159a196.1332,196.1332,0,0,1-92.8597,97.5194c-16.03038,7.85922-34.67837,14.93143-42.09836,31.16989-4.61711,10.10387-3.73788,22.03451-.02645,32.5046,3.71187,10.47051,10.02464,19.78684,16.27077,28.97358l.329,2.75358C890.11587,764.73444,928.48885,742.48648,953.81294,708.269Z" transform="translate(-146.74945 -22.14999)" fill="#e6e6e6"/><path d="M968.337,588.42024a167.64111,167.64111,0,0,1-34.87383,97.06831c-4.65036,5.94638-9.88529,11.57379-16.18127,15.80479a41.40535,41.40535,0,0,1-20.70071,6.808c-6.87805.49288-13.97063.20055-20.6091,2.3568-6.9973,2.27281-12.16447,7.505-15.1684,14.13559-3.67539,8.11271-4.21656,17.06223-4.44163,25.8325-.24991,9.7377-.3552,19.8561-4.94834,28.70812-.55652,1.07254,1.14025,1.87336,1.69593.80244,7.99128-15.401,2.80232-33.411,7.56462-49.60115,2.22218-7.5546,6.73449-14.48529,14.27649-17.51268,6.59516-2.64733,13.90935-2.35213,20.87784-2.791,7.317-.46082,14.153-2.10147,20.48885-5.9026,6.48125-3.88835,11.94722-9.323,16.72921-15.12437a162.64189,162.64189,0,0,0,25.478-43.98688,170.61391,170.61391,0,0,0,11.68173-56.761c.03842-1.20373-1.83122-1.03278-1.86939.16308Z" transform="translate(-146.74945 -22.14999)" fill="#fff"/><path d="M940.92644,676.9172a25.15151,25.15151,0,0,0,32.03331-5.88038c.76053-.93745-.66048-2.16332-1.422-1.22462a23.28973,23.28973,0,0,1-29.80884,5.40907c-1.0432-.60764-1.83968,1.09177-.80244,1.69593Z" transform="translate(-146.74945 -22.14999)" fill="#fff"/><path d="M900.10152,708.31074a48.47747,48.47747,0,0,1,3.573-35.14784c.5527-1.07448-1.14389-1.87562-1.69593-.80244a50.42393,50.42393,0,0,0-3.64374,36.58207c.328,1.16433,2.09279.52622,1.76662-.63179Z" transform="translate(-146.74945 -22.14999)" fill="#fff"/><path d="M963.14058,626.98936a14.237,14.237,0,0,1-9.29916-9.7992c-.313-1.16791-2.0776-.52852-1.76661.63179a15.95367,15.95367,0,0,0,10.26333,10.86333.9696.9696,0,0,0,1.24918-.44674.94283.94283,0,0,0-.44674-1.24918Z" transform="translate(-146.74945 -22.14999)" fill="#fff"/><path d="M828.20969,558.086c.17473.73482.34945,1.46965.5138,2.21648a187.49253,187.49253,0,0,1,4.45667,30.08579c.06412.78259.11732,1.57666.15882,2.35946a197.65946,197.65946,0,0,1-9.429,72.15883A191.95226,191.95226,0,0,1,812.76679,691.859c-6.06693,11.99893-13.59973,24.52611-15.29847,37.44814a32.928,32.928,0,0,0-.32574,4.06259l50.2652,47.85649c.16881.05144.32732.11481.4967.16678l1.91956,2.00252c.25784-.43228.516-.88617.77381-1.31845.15061-.25014.29-.51094.44063-.76108.09686-.17013.19323-.34087.29036-.48886.03245-.05651.06434-.11355.08593-.15865.09713-.148.17164-.29577.25784-.43229q2.17482-3.7997,4.30379-7.6432c.01093-.01148.01093-.01148.01066-.03362,10.76465-19.55132,19.99164-40.17307,25.79532-61.53973.1744-.64291.36028-1.29676.51172-1.96152a183.16538,183.16538,0,0,0,5.29218-29.41851,161.928,161.928,0,0,0,.69569-16.36936,134.65277,134.65277,0,0,0-6.99976-41.51495c-8.96579-26.68293-26.36546-50.20142-51.16813-62.73067C829.47936,558.70457,828.85535,558.39456,828.20969,558.086Z" transform="translate(-146.74945 -22.14999)" fill="#e6e6e6"/><path d="M827.7153,558.83153a167.641,167.641,0,0,1,30.597,98.50007c-.13292,7.54769-.92463,15.19265-3.40426,22.36148a41.40539,41.40539,0,0,1-12.42947,17.899c-5.195,4.53461-11.034,8.57142-15.03626,14.28989-4.21856,6.02756-5.19412,13.31617-3.60052,20.41889,1.94982,8.69039,6.90595,16.1619,12.00655,23.3,5.66324,7.92547,11.67115,16.06784,13.3333,25.90106.2014,1.19144,2.03832.80928,1.83723-.38036-2.89187-17.10813-17.87825-28.364-23.82338-44.15816-2.77411-7.36983-3.344-15.62032.85513-22.57833,3.672-6.08448,9.68969-10.25243,14.98941-14.79835,5.5648-4.7733,10.03513-10.199,12.80543-17.0486,2.83386-7.00679,3.92613-14.63691,4.25142-22.1481a162.64172,162.64172,0,0,0-6.14038-50.46058,170.614,170.614,0,0,0-24.84681-52.35366c-.69405-.98423-2.08394.27791-1.39442,1.25572Z" transform="translate(-146.74945 -22.14999)" fill="#fff"/><path d="M859.11082,645.99442A25.15151,25.15151,0,0,0,881.14723,622.013c.04284-1.20639-1.82982-1.32963-1.87272-.12163a23.28974,23.28974,0,0,1-20.544,22.26583c-1.19878.14291-.81156,1.97932.38036,1.83722Z" transform="translate(-146.74945 -22.14999)" fill="#fff"/><path d="M845.41548,695.63983A48.4775,48.4775,0,0,1,827.10694,665.425c-.20561-1.19067-2.04259-.80888-1.83723.38036a50.42388,50.42388,0,0,0,19.11561,31.40252c.96286.7322,1.98779-.83984,1.03016-1.56807Z" transform="translate(-146.74945 -22.14999)" fill="#fff"/><path d="M846.78756,592.75539A14.237,14.237,0,0,1,833.4629,590.53c-.95309-.744-1.977.82887-1.03016,1.56807a15.95369,15.95369,0,0,0,14.73518,2.49454.96962.96962,0,0,0,.72843-1.1088.94282.94282,0,0,0-1.10879-.72843Z" transform="translate(-146.74945 -22.14999)" fill="#fff"/><path d="M166.72312,516.626c-22.45954-36.16235-28.24972-84.9919-5.549-121.00279a196.13315,196.13315,0,0,0,84.62734,104.74335c15.33865,9.136,33.35021,17.70028,39.426,34.488,3.78071,10.44567,1.93481,22.26539-2.61522,32.39923-4.55052,10.13422-11.59952,18.90671-18.57158,27.55545l-.55169,2.71774C225.62066,578.08116,189.18266,552.7883,166.72312,516.626Z" transform="translate(-146.74945 -22.14999)" fill="#e6e6e6"/><path d="M161.987,395.99329a167.64111,167.64111,0,0,0,26.86994,99.58136c4.15173,6.30464,8.912,12.33887,14.84332,17.06754a41.40533,41.40533,0,0,0,20.079,8.46777c6.81525,1.05023,13.90813,1.33526,20.34941,4.02387,6.78944,2.83395,11.51432,8.46876,13.96945,15.32154,3.00393,8.38456,2.816,17.34846,2.32759,26.108-.54229,9.72581-1.25965,19.81929,2.59892,29.0153.46752,1.11423-1.28872,1.77451-1.75553.662-6.71324-15.99948-.07781-33.52827-3.50862-50.05184-1.60088-7.71021-5.535-14.98468-12.80605-18.615-6.3582-3.17455-13.67218-3.47473-20.582-4.47846-7.25538-1.05393-13.93538-3.2447-19.94139-7.54816-6.14381-4.40221-11.15-10.263-15.44475-16.43389a162.64205,162.64205,0,0,1-21.819-45.91193,170.61367,170.61367,0,0,1-7.03025-57.52257c.05953-1.20286,1.9091-.88054,1.85.31447Z" transform="translate(-146.74945 -22.14999)" fill="#fff"/><path d="M182.11489,486.42513a25.15152,25.15152,0,0,1-31.44947-8.46422c-.68183-.99615.83411-2.10248,1.51685-1.105a23.28974,23.28974,0,0,0,29.27066,7.8137c1.08913-.52086,1.74486,1.23765.662,1.75553Z" transform="translate(-146.74945 -22.14999)" fill="#fff"/><path d="M220.25349,521.03258a48.47752,48.47752,0,0,0-.70484-35.322c-.46356-1.11585,1.29253-1.77646,1.75553-.662a50.42392,50.42392,0,0,1,.65873,36.75719c-.42148,1.13382-2.12862.3544-1.70942-.77327Z" transform="translate(-146.74945 -22.14999)" fill="#fff"/><path d="M164.03176,434.85713a14.237,14.237,0,0,0,10.06476-9.01106c.40691-1.13861,2.11369-.35793,1.70943.77326a15.9537,15.9537,0,0,1-11.11223,9.99333.96961.96961,0,0,1-1.20874-.54678.94283.94283,0,0,1,.54678-1.20875Z" transform="translate(-146.74945 -22.14999)" fill="#fff"/><path d="M304.116,377.14721c-.23386.7182-.46772,1.43639-.69222,2.1674a187.49208,187.49208,0,0,0-6.88694,29.62409c-.12751.77479-.24506,1.5619-.35,2.33874a197.65954,197.65954,0,0,0,3.53361,72.68643,191.95295,191.95295,0,0,0,8.916,27.76891c5.07174,12.45229,11.56156,25.55021,12.20454,38.56755a32.93273,32.93273,0,0,1-.00549,4.07562L266.84724,597.9892c-.17244.03755-.33557.08783-.50861.12586l-2.076,1.8399c-.22186-.4518-.44224-.92517-.6641-1.377-.12978-.26155-.24754-.53281-.37732-.79436-.08272-.17745-.16489-.35545-.24967-.51085-.02775-.059-.0549-.1184-.07275-.16511-.08479-.15539-.147-.30874-.22186-.45181q-1.85883-3.96387-3.6684-7.96768c-.01-.01233-.01-.01233-.0079-.03437-9.14015-20.36147-16.66073-41.66488-20.70879-63.43251-.12157-.65495-.25371-1.32175-.35062-1.99662a183.16552,183.16552,0,0,1-2.88389-29.75129,161.928,161.928,0,0,1,.63692-16.37175,134.65279,134.65279,0,0,1,10.35044-40.80877c11.1046-25.866,30.358-47.8927,56.09687-58.36485C302.80023,377.66058,303.44738,377.40231,304.116,377.14721Z" transform="translate(-146.74945 -22.14999)" fill="#e6e6e6"/><path d="M304.54814,377.93048a167.64111,167.64111,0,0,0-38.50072,95.6877c-.48091,7.53353-.31311,15.21754,1.57573,22.56418a41.40541,41.40541,0,0,0,10.93374,18.85c4.80929,4.94179,10.30094,9.43977,13.82521,15.46458,3.71476,6.35046,4.09476,13.69424,1.92921,20.644-2.64962,8.50318-8.19656,15.5472-13.86038,22.24716-6.2886,7.439-12.93834,15.0662-15.39413,24.73182-.29755,1.17112-2.09734.64095-1.80024-.52841,4.27265-16.81652,20.12421-26.81729,27.33323-42.076,3.36386-7.12,4.6024-15.2969.98259-22.57315-3.16537-6.36277-8.82445-11.006-13.7372-15.96756-5.15848-5.20974-9.17309-10.98076-11.37757-18.03288-2.25506-7.21391-2.72362-14.90756-2.43743-22.42034a162.64161,162.64161,0,0,1,10.22091-49.79465,170.61379,170.61379,0,0,1,29.01929-50.16124c.77174-.92458,2.05446.44634,1.28776,1.36488Z" transform="translate(-146.74945 -22.14999)" fill="#fff"/><path d="M266.17292,462.25362a25.1515,25.1515,0,0,1-20.0146-25.69295.93891.93891,0,0,1,1.87641.031,23.28973,23.28973,0,0,0,18.6666,23.86175c1.1832.23986.648,2.03873-.52841,1.80024Z" transform="translate(-146.74945 -22.14999)" fill="#fff"/><path d="M275.78838,512.8478a48.47748,48.47748,0,0,0,20.70347-28.627c.30169-1.17,2.10157-.64021,1.80025.52841a50.424,50.424,0,0,1-21.6044,29.74516c-1.01918.65153-1.913-.99861-.89932-1.64661Z" transform="translate(-146.74945 -22.14999)" fill="#fff"/><path d="M282.78205,410.19217a14.237,14.237,0,0,0,13.46143-1.13515c1.01041-.66413,1.90315.9868.89932,1.6466a15.95368,15.95368,0,0,1-14.88916,1.28879.96962.96962,0,0,1-.63592-1.16433.94283.94283,0,0,1,1.16433-.63591Z" transform="translate(-146.74945 -22.14999)" fill="#fff"/><circle cx="437.11309" cy="159.3319" r="59.44187" fill="#ff6584"/><path d="M765.86054,178.38a218.45937,218.45937,0,0,0-16.94-16.08c-11.58-9.82-24.4-18.17-38.69-23.43a89.21826,89.21826,0,0,0-16.6-4.37c-.68-.11-1.35-.22-2.03-.31a.75083.75083,0,0,0-.15,0,1.8046,1.8046,0,0,0-.32-.06c-1.39-.18-2.78-.32-4.18-.42a72.43533,72.43533,0,0,0-22.44,2.02,74.627,74.627,0,0,0-12.4,4.32,111.00768,111.00768,0,0,0-11.63,6.59,69.87492,69.87492,0,0,1-6.2,3.35,77.33041,77.33041,0,0,1-19.5,6.24,87.551,87.551,0,0,1-13.8,1.36c-4.02.08-7.81.22-11.62,1.67a27.84633,27.84633,0,0,0-16.97,18.38,1.79112,1.79112,0,0,0,.8,1.97c1.03.74006,2.03,1.58,3.12,2.24006a9.79007,9.79007,0,0,0,3.04.82995q2.58.54008,5.17,1.05,9.525,1.88993,19.13,3.35,19.32,2.925,38.86,4.12a1.94,1.94,0,0,0,.24.02,437.361,437.361,0,0,0,44.2.43c2.23-.09,4.45-.2,6.68-.33q13.935-.78,27.8-2.46,12.825-1.56,25.55-3.87,9.09-1.65,18.11005-3.68A1.771,1.771,0,0,0,765.86054,178.38Z" transform="translate(-146.74945 -22.14999)" fill="#e6e6e6"/><path d="M642.31055,257.64a194.15642,194.15642,0,0,0-28.31-24.92c-3.39-2.38-6.88-4.62-10.47-6.67a110.95687,110.95687,0,0,0-13.68-6.69c-1.05-.43-2.11-.84-3.17-1.23a88.61059,88.61059,0,0,0-18.63-4.68c-.05-.01-.1,0-.15-.01-.1-.02-.21-.04-.31-.06a68.82152,68.82152,0,0,0-9.30005-.57c-2.23,0-4.47.12-6.69.34a73.98035,73.98035,0,0,0-10.64,1.84c-1.73.43-3.45.93-5.14,1.5a73.41338,73.41338,0,0,0-7.25,2.82c-.04.02-.07.03-.11.05a108.02547,108.02547,0,0,0-11.52,6.54c-.08.05-.17.1-.25.15a72.66782,72.66782,0,0,1-13.28,6.22,80.87794,80.87794,0,0,1-12.18,3.22,86.24775,86.24775,0,0,1-13.8,1.35c-4.02.08-7.81.22-11.61,1.68a27.86071,27.86071,0,0,0-16.98,18.38,1.80286,1.80286,0,0,0,.8,1.97c1.03.74,2.04,1.57,3.12,2.23005a9.59521,9.59521,0,0,0,3.04.82995c1.72.36005,3.44.72,5.17,1.06q9.52506,1.89,19.14,3.34,13.18506,1.995,26.48,3.19,6.29992.585,12.61.96,16.185.97494,32.4.76,3.34506-.045,6.69-.15,19.86008-.585,39.6-2.98a435.5667,435.5667,0,0,0,43.65-7.55A1.76342,1.76342,0,0,0,642.31055,257.64Z" transform="translate(-146.74945 -22.14999)" fill="#e6e6e6"/><path d="M493.92752,121.31309l52.3669,613.01825-104.73379,7.87471V129.11242C454.04068,120.8544,471.95544,119.56241,493.92752,121.31309Z" transform="translate(-146.74945 -22.14999)" fill="#ccc"/><path d="M752.41944,121.31309l-52.3669,613.01825,104.7338,7.87471V129.11242C792.30628,120.8544,774.39153,119.56241,752.41944,121.31309Z" transform="translate(-146.74945 -22.14999)" fill="#ccc"/><path d="M807.25055,129.38a20.13976,20.13976,0,0,0-18.15-11.41h-332.97a20.15668,20.15668,0,0,0-20.14,20.14V747.4a20.15687,20.15687,0,0,0,15.66,19.63,19.47633,19.47633,0,0,0,4.48.51h332.97a19.47647,19.47647,0,0,0,4.48-.51,20.15752,20.15752,0,0,0,15.66-19.63V138.11A20.08513,20.08513,0,0,0,807.25055,129.38Zm-4.69,618.02a13.47761,13.47761,0,0,1-13.46,13.46h-332.97a13.47169,13.47169,0,0,1-13.46-13.46V138.11a13.46909,13.46909,0,0,1,13.46-13.44995h332.97a13.2722,13.2722,0,0,1,4,.61,13.46655,13.46655,0,0,1,9.46,12.84Z" transform="translate(-146.74945 -22.14999)" fill="#ccc"/><rect x="292.5828" y="197.21176" width="366.56828" height="6.68514" fill="#ccc"/><rect x="292.5828" y="308.63069" width="366.56828" height="6.68514" fill="#ccc"/><rect x="404.85261" y="99.1631" width="6.68514" height="304.17368" fill="#ccc"/><rect x="540.19614" y="99.1631" width="6.68514" height="304.17368" fill="#ccc"/><path d="M847.68055,725.76h-438.99a30.11557,30.11557,0,0,0-30.08,30.08,29.77711,29.77711,0,0,0,2.17,11.19,30.08239,30.08239,0,0,0,27.91,18.9h438.99a30.08242,30.08242,0,0,0,25.96-14.9,29.05063,29.05063,0,0,0,1.96-4,29.77711,29.77711,0,0,0,2.17-11.19A30.12413,30.12413,0,0,0,847.68055,725.76Z" transform="translate(-146.74945 -22.14999)" fill="#ccc"/><rect x="294.81118" y="387.73813" width="364.3399" height="22.28379" fill="#ccc"/><path d="M472.38247,381.053h9.19732a11,11,0,0,1,11,11v1.25609a0,0,0,0,1,0,0h-31.1973a0,0,0,0,1,0,0V392.053A11,11,0,0,1,472.38247,381.053Z" fill="#ccc"/><circle id="ba9ec7a6-8b16-48f6-bf99-c4fb6ed8b316" data-name="ab6171fa-7d69-4734-b81c-8dff60f9761b" cx="483.4084" cy="381.53598" r="69.04771" fill="#ffb8b8"/><path id="e3148678-19f7-4b09-9bcf-f9b04484f9c5" data-name="bf427902-b9bf-4946-b5d7-5c1c7e04535e" d="M553.13306,337.26153c.52205-7.92917,5.76573-16.04308,22.42565-20.283,0,0,28.59134-36.56083,67.44369-17.38784,0,0,18.83545-3.24051,32.80237,16.302,0,0,13.84744-8.167,19.68977,6.309,0,0,16.24074,29.52758,10.26165,59.64572-5.97909,30.11819-9.03956,33.87679-9.03956,33.87679s7.62127-62.29881-36.27513-57.97893-79.23728-11.11709-89.17807,22.68158c-8.25443,28.06509-7.21461,42.64079-7.21461,42.64079s-27.60317-27.99733-18.218-50.04317C550.6309,361.74889,552.328,349.48982,553.13306,337.26153Z" transform="translate(-146.74945 -22.14999)" fill="#2f2e41"/><path d="M442.39005,781.03H824.31189c-2.55248-29.13289-4.22086-140.49548-4.22086-147.82507,0-32.32709-26.452-67.606-26.452-67.606l-9.46857-5.23343-79.071-24.66954-20.46286-26.58041a22.7542,22.7542,0,0,0-18.22415-8.89814l-64.64.48488a22.82312,22.82312,0,0,0-15.32936,6.07471l-40.02735,37.13265-58.70792,28.03485-.09983-.09974-.61317.45624-8.71275,6.27438-5.60412,4.04983s-14.70191,17.63945-26.452,70.5435C444.45775,661.12576,443.21706,764.132,442.39005,781.03Z" transform="translate(-146.74945 -22.14999)" fill="#624695"/><path d="M912.71057,767.03c-.92.84-1.85,1.67-2.78,2.5q-5.28,4.695-10.71,9.23-8.205,6.84-16.75,13.27H368.33057q-15.705-11.79-30.25-25Z" transform="translate(-146.74945 -22.14999)" fill="#ccc"/><polygon points="577.501 750.88 388.501 750.88 392.501 731.88 573.501 731.88 577.501 750.88" fill="#2f2e41"/><path d="M895.24054,691.03h-49.18a7.59625,7.59625,0,0,0-5.83,2.7,11.02747,11.02747,0,0,0-2.08-.2,11.665,11.665,0,1,0,0,23.33,11.53365,11.53365,0,0,0,5.08-1.18l.82,10.08,3.26,39.84a7.27223,7.27223,0,0,0,.62,1.43,7.66706,7.66706,0,0,0,6.73,4h31.98a7.69472,7.69472,0,0,0,6.74-4,7.88477,7.88477,0,0,0,.61-1.43l8.6-64.62A7.68967,7.68967,0,0,0,895.24054,691.03Zm-57.09,22.5a8.335,8.335,0,0,1,0-16.67c.15,0,.29.04.44.05a7.63593,7.63593,0,0,0,.12,4.07l3.52,11.44A8.198,8.198,0,0,1,838.15058,713.53Z" transform="translate(-146.74945 -22.14999)" fill="#3f3d56"/><path d="M784.16053,479.6H472.84058a10.10611,10.10611,0,0,0-10.09,10.09V699.77a10.09967,10.09967,0,0,0,10.09,10.09h311.32a10.09967,10.09967,0,0,0,10.09-10.09V489.69A10.10611,10.10611,0,0,0,784.16053,479.6Z" transform="translate(-146.74945 -22.14999)" fill="#3f3d56"/><path d="M663.56055,647.93h-72.83a3.88588,3.88588,0,0,0-3.88,3.89V766.87h80.6V651.82A3.888,3.888,0,0,0,663.56055,647.93Zm-36.17,65.37a8.64039,8.64039,0,0,1-8.6-8.6V691.43a8.6,8.6,0,0,1,17.2,0V704.7a8.64026,8.64026,0,0,1-8.6,8.6Z" transform="translate(-146.74945 -22.14999)" fill="#2f2e41"/><path d="M586.60053,763.19v11.1a2.17445,2.17445,0,0,0,2.17,2.17h76.76a2.18093,2.18093,0,0,0,2.17-2.17v-11.1Z" transform="translate(-146.74945 -22.14999)" fill="#3f3d56"/><circle cx="630.79095" cy="670.50899" r="4.91475" fill="#2f2e41"/><path d="M512.14057,685.53a1.71989,1.71989,0,0,0-1.72,1.72v8.85a1.72,1.72,0,0,0,3.44,0v-8.85A1.71985,1.71985,0,0,0,512.14057,685.53Z" transform="translate(-146.74945 -22.14999)" fill="#2f2e41"/><path d="M521.48053,685.53a1.71988,1.71988,0,0,0-1.72,1.72v8.85a1.72,1.72,0,0,0,3.44,0v-8.85A1.71989,1.71989,0,0,0,521.48053,685.53Z" transform="translate(-146.74945 -22.14999)" fill="#2f2e41"/><path d="M530.82056,685.53a1.7199,1.7199,0,0,0-1.72,1.72v8.85a1.72,1.72,0,0,0,3.44,0v-8.85A1.71985,1.71985,0,0,0,530.82056,685.53Z" transform="translate(-146.74945 -22.14999)" fill="#2f2e41"/><path d="M540.16053,685.53a1.71989,1.71989,0,0,0-1.72,1.72v8.85a1.72,1.72,0,0,0,3.44,0v-8.85A1.7199,1.7199,0,0,0,540.16053,685.53Z" transform="translate(-146.74945 -22.14999)" fill="#2f2e41"/><circle cx="400.86317" cy="719.88" r="26" fill="#ffb8b8"/><circle cx="582.5011" cy="724.88" r="26" fill="#ffb8b8"/><path d="M997.61736,433.2021c-2.56926-4.24933-5.61372-8.78635-10.3816-10.17389-5.52154-1.60684-11.19353,1.58521-16.00469,4.73512a466.37586,466.37586,0,0,0-41.5047,30.58014l.01451.16495c10.32381-.712,18.89179,26.739,29.21558,26.027,7.459-.51438,16.93-29.26255,23.52163-32.79111,2.50131-1.339,4.93955-3.12752,7.77394-3.25215,3.52147-.15483,6.592,2.30456,9.005,4.87406,14.27359,15.19944,18.40408,38.443,34.41762,51.79685A508.19737,508.19737,0,0,0,997.61736,433.2021Z" transform="translate(-146.74945 -22.14999)" fill="#3f3d56"/><path d="M1025.09058,470.12q11.295,20.40006,23.96,39.99v.01c-.05.46-.12.92005-.19,1.38q-1.52994-2.34-3.03-4.7-11.37-17.83494-21.61-36.35-4.86-8.805-9.48-17.75-3.57-6.93-6.99-13.94c-.65-1.34-1.28-2.68-1.91-4.03-1.48-3.16-2.94-6.34-4.5-9.46-1.78-3.56-3.95-7.28-7.22-9.67a9.85078,9.85078,0,0,0-5.13-1.98005c-2.67-.17-5.12.93-7.43,2.13a239.11835,239.11835,0,0,0-47.03,32.43,245.0645,245.0645,0,0,0-38.2,42.41c-.34.48-1.14.02-.8-.47,1.35-1.9,2.71-3.76995,4.11-5.63a246.22982,246.22982,0,0,1,62.85-58.62q6.105-3.95992,12.45-7.55c2.13-1.21,4.27-2.4,6.45-3.52a15.72812,15.72812,0,0,1,6.84-2.12c8.3-.13,12.6,9.27,15.55,15.59q1.38,2.985,2.81,5.96,5.385,11.25,11.19,22.32Q1021.35051,463.375,1025.09058,470.12Z" transform="translate(-146.74945 -22.14999)" fill="#3f3d56"/><path d="M933.71426,443.53726c-.4821-.53744-.96121-1.07488-1.44646-1.61232-3.82656-4.232-7.93248-8.41477-13.18721-10.84093a19.132,19.132,0,0,0-8.01555-1.858,22.87469,22.87469,0,0,0-8.32251,1.815c-1.253.50058-2.47846,1.06873-3.6853,1.67372-1.379.69407-2.73338,1.43421-4.08148,2.18048q-3.796,2.10061-7.4934,4.38549-7.35688,4.54674-14.25294,9.78754-3.57486,2.71791-7.00216,5.61394-3.18774,2.69025-6.24653,5.52488c-.43607.40231-1.08717-.24876-.6511-.65107.53744-.50059,1.081-.9981,1.62461-1.48947q2.30331-2.0822,4.6804-4.08455,4.33468-3.65766,8.89384-7.03277,7.08966-5.25156,14.66741-9.7906,3.78675-2.26646,7.67771-4.34252c.78321-.41766,1.57557-.82612,2.37708-1.21308a37.89483,37.89483,0,0,1,5.65076-2.30024,20.10238,20.10238,0,0,1,8.53455-.83839,22.21977,22.21977,0,0,1,7.87429,2.724c5.15936,2.88375,9.16091,7.343,13.0551,11.69468C934.75855,443.32535,934.11044,443.97949,933.71426,443.53726Z" transform="translate(-146.74945 -22.14999)" fill="#3f3d56"/><path d="M895.95939,463.89871a5.94208,5.94208,0,0,1-3.68554-1.05566c-2.85547-2.16309-2.78028-7.3584.22851-15.88379a17.93092,17.93092,0,0,1,9.70606-10.43213,16.61526,16.61526,0,0,1,13.38183-.07959q.55371.24024,1.0918.5166h0a39.40878,39.40878,0,0,1,6.84277,4.855,45.2084,45.2084,0,0,0,5.69922,4.20948l.66992.39258-.63476.44726C913.06,458.27274,902.07756,463.89871,895.95939,463.89871Z" transform="translate(-146.74945 -22.14999)" fill="#3f3d56"/><path d="M958.25055,396.03a23.0047,23.0047,0,0,1-22.56494-18.54529,23.00045,23.00045,0,1,0,27.12988,18.09058A23.10143,23.10143,0,0,1,958.25055,396.03Z" transform="translate(-146.74945 -22.14999)" fill="#3f3d56"/><circle cx="195.82369" cy="376.55742" r="34.32258" fill="#3f3d56" opacity="0.74"/><circle cx="230.14627" cy="376.55742" r="34.32258" fill="#624695" opacity="0.74"/><circle cx="213.2753" cy="349.20259" r="34.32258" fill="#ff6584" opacity="0.74"/><rect x="359.7873" y="375.31883" width="92.40918" height="2" transform="translate(-240.87503 116.83406) rotate(-17.44076)" fill="#3f3d56"/><circle cx="303.58601" cy="340.0013" r="4" fill="#3f3d56"/><path d="M1022.67054,542.14c5.86,4.13,11.49,8.34,17.93,11.52-.12.49-.25.99-.37,1.48-.79-.37-1.56-.76-2.33-1.16-6.53-3.42-12.15-8.07-18.28-12.11005a39.44112,39.44112,0,0,0-9.86-4.94,32.52889,32.52889,0,0,0-11.27-1.32c-15.87.78-29.47,10.25-44.22,15.02-7.22,2.34-14.9,3.59-22.43,2.12-7.53-1.47-14.22-5.47-20.87006-9.09-6.56-3.58-13.71-7.18-21.37-7.18-6.24.01-12.8,2.51-16.14,8.03a.749.749,0,0,1-1.29-.76,15.73975,15.73975,0,0,1,2.73-3.41c4.36-4.13,10.77-5.76,16.66-5.28,7.62.62,14.57,4.22,21.16,7.84,6.99,3.84,14.15,7.97,22.23,8.81,7.98.84,15.88-1.25,23.28-4.06,14.33-5.45,28.47-14.53,44.41-13.52C1010.16053,534.61,1016.60053,537.87,1022.67054,542.14Z" transform="translate(-146.74945 -22.14999)" fill="#3f3d56"/><path d="M395.43055,252.93v2.03a10.53152,10.53152,0,0,0-2.04-.2h-10.46v22.46a12.54723,12.54723,0,0,1-12.54,12.54h-15.46v3.46a10.47931,10.47931,0,0,0,.81,4.04h-2.14a12.317,12.317,0,0,1-.67-4.04v-3.46h-8.5v-2h8.5V265.3a12.54722,12.54722,0,0,1,12.54-12.54h15.46v-3.5h2v3.5h10.46A12.48142,12.48142,0,0,1,395.43055,252.93Z" transform="translate(-146.74945 -22.14999)" fill="#624695"/><path d="M370.39057,236.76H342.47052a12.54722,12.54722,0,0,0-12.54,12.54v27.92a12.54722,12.54722,0,0,0,12.54,12.54h27.92005a12.54723,12.54723,0,0,0,12.54-12.54V249.26A12.54521,12.54521,0,0,0,370.39057,236.76Zm10.54,40.46a10.55419,10.55419,0,0,1-10.54,10.54H342.47052a10.55418,10.55418,0,0,1-10.54-10.54V249.3a10.55418,10.55418,0,0,1,10.54-10.54h27.92005a10.55228,10.55228,0,0,1,10.54,10.5Z" transform="translate(-146.74945 -22.14999)" fill="#3f3d56"/><path d="M352.93055,287.76v2h2v-2Zm0,0v2h2v-2Zm42.5-34.83a12.48142,12.48142,0,0,0-2.04-.17H365.47052a12.54722,12.54722,0,0,0-12.54,12.54v27.92a12.317,12.317,0,0,0,.67,4.04,12.54449,12.54449,0,0,0,11.87,8.5h27.92005a12.54723,12.54723,0,0,0,12.54-12.54V265.3A12.54059,12.54059,0,0,0,395.43055,252.93Zm8.5,40.29a10.55419,10.55419,0,0,1-10.54,10.54H365.47052a10.555,10.555,0,0,1-10.54-10.54V265.3a10.55418,10.55418,0,0,1,10.54-10.54h27.92005a10.544,10.544,0,0,1,10.54,10.54Zm-51-5.46v2h2v-2Z" transform="translate(-146.74945 -22.14999)" fill="#3f3d56"/><path d="M333.18055,548.45h-118.6a3.12191,3.12191,0,0,0-3.12,3.11v7.03a420.85277,420.85277,0,0,0,14.19,44.21h107.53a3.10688,3.10688,0,0,0,3.11-3.11V551.56A3.11332,3.11332,0,0,0,333.18055,548.45Z" transform="translate(-146.74945 -22.14999)" fill="#624695"/><path d="M321.88056,618.41h-89.9c1.07,2.51,2.16,5,3.29,7.48h86.61C326.76056,625.96,326.71057,618.34,321.88056,618.41Z" transform="translate(-146.74945 -22.14999)" fill="#e4e4e4"/><path d="M321.88056,635.55h-82.1q1.79993,3.765,3.7,7.48h78.4C326.76056,643.1,326.71057,635.49,321.88056,635.55Z" transform="translate(-146.74945 -22.14999)" fill="#e4e4e4"/><path d="M321.88056,652.7h-73.35c1.34,2.51,2.72,5,4.12,7.48h69.23C326.76056,660.25,326.71057,652.63,321.88056,652.7Z" transform="translate(-146.74945 -22.14999)" fill="#e4e4e4"/><path d="M936.73212,191.73471h-.56982a11.44991,11.44991,0,0,1,5.10937,1.20837h-2.59326a10.5515,10.5515,0,0,0-10.53955,10.53956v27.92089a10.55149,10.55149,0,0,0,10.53955,10.53955h1.6532a11.46057,11.46057,0,0,1-4.16931.79163h.56982a11.5528,11.5528,0,0,0,11.53955-11.53955v-27.9209A11.5528,11.5528,0,0,0,936.73212,191.73471Z" transform="translate(-146.74945 -22.14999)" fill="#3f3d56"/><path d="M936.73212,191.73471h-.56982a11.44991,11.44991,0,0,1,5.10937,1.20837h-2.59326a10.5515,10.5515,0,0,0-10.53955,10.53956v27.92089a10.55149,10.55149,0,0,0,10.53955,10.53955h1.6532a11.46057,11.46057,0,0,1-4.16931.79163h.56982a11.5528,11.5528,0,0,0,11.53955-11.53955v-27.9209A11.5528,11.5528,0,0,0,936.73212,191.73471Z" transform="translate(-146.74945 -22.14999)" opacity="0.21"/><path d="M862.73212,191.73471h-.56982a11.44991,11.44991,0,0,1,5.10937,1.20837h-2.59326a10.5515,10.5515,0,0,0-10.53955,10.53956v27.92089a10.55149,10.55149,0,0,0,10.53955,10.53955h1.6532a11.46057,11.46057,0,0,1-4.16931.79163h.56982a11.5528,11.5528,0,0,0,11.53955-11.53955v-27.9209A11.5528,11.5528,0,0,0,862.73212,191.73471Z" transform="translate(-146.74945 -22.14999)" fill="#624695"/><path d="M862.73212,191.73471h-.56982a11.44991,11.44991,0,0,1,5.10937,1.20837h-2.59326a10.5515,10.5515,0,0,0-10.53955,10.53956v27.92089a10.55149,10.55149,0,0,0,10.53955,10.53955h1.6532a11.46057,11.46057,0,0,1-4.16931.79163h.56982a11.5528,11.5528,0,0,0,11.53955-11.53955v-27.9209A11.5528,11.5528,0,0,0,862.73212,191.73471Z" transform="translate(-146.74945 -22.14999)" opacity="0.21"/><path d="M864.7901,242.03a10.5515,10.5515,0,0,1-10.53955-10.53955v-27.9209A10.5515,10.5515,0,0,1,864.7901,193.03h2.59326a11.45,11.45,0,0,0-5.10937-1.20838h-27.9209a11.5528,11.5528,0,0,0-11.53955,11.53956v27.92089a11.55279,11.55279,0,0,0,11.53955,11.53955H862.274a11.46073,11.46073,0,0,0,4.16931-.79162Z" transform="translate(-146.74945 -22.14999)" fill="#624695"/><path d="M938.7901,242.03a10.5515,10.5515,0,0,1-10.53955-10.53955v-27.9209A10.5515,10.5515,0,0,1,938.7901,193.03h2.59326a11.45,11.45,0,0,0-5.10937-1.20838h-27.9209a11.5528,11.5528,0,0,0-11.53955,11.53956v27.92089a11.55279,11.55279,0,0,0,11.53955,11.53955H936.274a11.46073,11.46073,0,0,0,4.16931-.79162Z" transform="translate(-146.74945 -22.14999)" fill="#3f3d56"/><path d="M971.76056,198.77a427.09,427.09,0,0,1,28.07,44.05h-17.48a11.55714,11.55714,0,0,1-11.54-11.54V203.36A11.52686,11.52686,0,0,1,971.76056,198.77Z" transform="translate(-146.74945 -22.14999)" fill="#ff6584"/><path d="M936.71057,257.47l-9.78-14.65-7.15-10.71a3.97837,3.97837,0,0,0-7.11,1.03l-3.01,9.68-6.06,19.45a3.98608,3.98608,0,0,0,5.9,4.57l2.15-1.33a2.9855,2.9855,0,0,1,4.54,2.27l1.97,21.5a3.992,3.992,0,0,0,3.96,3.62c.12,0,.24-.01.37-.02l3.02-.27a3.97659,3.97659,0,0,0,3.6-4.33l-2.03-22.2a2.98129,2.98129,0,0,1,4.22-2.98l.44.2a3.97939,3.97939,0,0,0,4.97-5.83Z" transform="translate(-146.74945 -22.14999)" fill="#ccc"/></svg>